<svg xmlns="http://www.w3.org/2000/svg" viewBox="0 0 394.81 54.06"><path d="M24.49 18.1c1.69.37 3.34.82 4.93 1.33 1.59.52 3.01 1.21 4.25 2.08a9.9 9.9 0 0 1 2.98 3.29c.74 1.32 1.12 2.98 1.12 4.96 0 2.19-.48 4.15-1.43 5.89-.95 1.74-2.26 3.2-3.94 4.4-1.67 1.2-3.65 2.12-5.92 2.76-2.27.64-4.73.96-7.38.96-1.74 0-3.49-.09-5.27-.28-1.78-.19-3.49-.42-5.15-.71-1.65-.29-3.18-.62-4.59-.99-1.41-.37-2.6-.74-3.6-1.12l.93-8.99c.41 1.94 1.27 3.62 2.57 5.02 1.3 1.41 2.8 2.56 4.5 3.47 1.69.91 3.48 1.59 5.36 2.05 1.88.46 3.63.68 5.24.68 1.74 0 3.35-.23 4.84-.68 1.49-.45 2.78-1.12 3.88-1.98a8.294 8.294 0 0 0 2.48-3.25c.56-1.3.77-2.82.65-4.56-.12-1.82-.87-3.19-2.23-4.12-1.36-.93-3.06-1.65-5.08-2.17-2.03-.52-4.24-.95-6.63-1.3-2.4-.35-4.71-.86-6.94-1.52-1.36-.41-2.66-.89-3.88-1.43-1.22-.54-2.28-1.22-3.19-2.05a9.273 9.273 0 0 1-2.17-2.98C.28 15.7.01 14.28.01 12.58c0-2.11.5-3.95 1.49-5.52.99-1.57 2.36-2.88 4.09-3.94C7.33 2.07 9.35 1.28 11.67.76c2.31-.52 4.79-.77 7.44-.77 3.39 0 6.49.25 9.3.74 2.81.5 5.19 1.08 7.13 1.74l-1.18 8.43c-1.2-3.35-3.13-5.86-5.8-7.53S22.73.87 19.1.87c-1.45 0-2.89.15-4.34.46-1.45.31-2.75.82-3.91 1.52-1.16.7-2.09 1.61-2.79 2.73-.7 1.12-1.05 2.46-1.05 4.03s.52 2.81 1.55 3.72c1.03.91 2.39 1.64 4.06 2.2 1.67.56 3.55 1.02 5.64 1.4 2.09.37 4.16.77 6.23 1.18Zm44.45 20.46c-.95 1.57-2.44 2.84-4.46 3.81-2.03.97-4.71 1.46-8.06 1.46-2.44 0-4.65-.35-6.63-1.05-1.98-.7-3.68-1.71-5.08-3.04-1.41-1.32-2.49-2.97-3.25-4.93-.77-1.96-1.15-4.19-1.15-6.67s.38-4.7 1.15-6.67c.76-1.96 1.85-3.61 3.25-4.93 1.4-1.32 3.1-2.33 5.08-3.04 1.98-.7 4.19-1.05 6.63-1.05 1.49 0 2.91.1 4.28.31 1.36.21 2.58.41 3.66.62 1.24.29 2.38.6 3.41.93L49.73 34.77c1.32 2.65 2.71 4.61 4.15 5.89 1.45 1.28 3.1 1.92 4.96 1.92 2.36 0 4.34-.46 5.95-1.4 1.61-.93 2.77-2.04 3.47-3.32l.68.68ZM50.96 14.38c-2.85 1.03-4.47 3-4.87 5.89-.39 2.89.34 6.66 2.2 11.28.16.41.33.82.5 1.21.16.39.33.77.5 1.15l13.64-15.44c-.79-.74-1.67-1.45-2.67-2.11-.99-.66-2.01-1.2-3.07-1.61a11.76 11.76 0 0 0-3.16-.77c-1.05-.1-2.08.03-3.07.4Zm47.87 24.18c-.95 1.57-2.44 2.84-4.46 3.81-2.03.97-4.71 1.46-8.06 1.46-2.44 0-4.65-.35-6.63-1.05-1.98-.7-3.68-1.71-5.08-3.04-1.41-1.32-2.49-2.97-3.25-4.93-.77-1.96-1.15-4.19-1.15-6.67s.38-4.7 1.15-6.67c.76-1.96 1.85-3.61 3.25-4.93 1.4-1.32 3.1-2.33 5.08-3.04 1.98-.7 4.19-1.05 6.63-1.05 1.49 0 2.91.1 4.28.31 1.36.21 2.58.41 3.66.62 1.24.29 2.38.6 3.41.93l-2.48 7.38c-.58-1.03-1.39-2.09-2.42-3.16a16.206 16.206 0 0 0-3.53-2.76c-1.32-.76-2.71-1.31-4.15-1.64-1.45-.33-2.85-.25-4.22.25-2.85 1.03-4.47 3-4.87 5.89-.39 2.89.34 6.66 2.2 11.28 1.49 3.76 3.07 6.54 4.74 8.34 1.67 1.8 3.61 2.7 5.8 2.7 2.36 0 4.33-.46 5.92-1.4 1.59-.93 2.74-2.04 3.44-3.32l.74.68Zm19.9-25.91c4.01.58 7.15 2.2 9.42 4.87 2.27 2.67 3.41 6.21 3.41 10.63 0 2.48-.38 4.7-1.15 6.67-.77 1.96-1.84 3.61-3.22 4.93-1.39 1.32-3.07 2.34-5.05 3.04-1.98.7-4.22 1.05-6.7 1.05-1.12 0-2.19-.06-3.22-.19-4.01-.58-7.15-2.2-9.42-4.87-2.27-2.67-3.41-6.21-3.41-10.63 0-2.48.37-4.7 1.12-6.67.74-1.96 1.82-3.62 3.22-4.96 1.4-1.34 3.1-2.37 5.08-3.07 1.98-.7 4.19-1.05 6.63-1.05.58 0 1.14.02 1.67.06.54.04 1.07.1 1.61.19Zm2.17 29.26c2.85-1.2 4.47-3.2 4.87-6.01.39-2.81-.34-6.53-2.2-11.16-1.49-3.76-3.14-6.59-4.96-8.49l-.06-.06c-1.86-1.9-3.97-2.71-6.32-2.42-.83.12-1.57.33-2.23.62-2.81 1.2-4.42 3.2-4.84 6.01-.41 2.81.31 6.53 2.17 11.16.78 1.9 1.58 3.56 2.39 4.96.81 1.41 1.66 2.58 2.57 3.53.04 0 .06.02.06.06 1.9 1.9 4.03 2.71 6.39 2.42.33-.08.68-.16 1.05-.25.37-.08.74-.21 1.12-.37Zm37.38.75c.54-.37 1.03-.84 1.49-1.4.45-.56.68-1.19.68-1.89v-13.7c0-2.6-.33-4.75-.99-6.45-.66-1.69-1.53-3.01-2.6-3.94-1.08-.93-2.28-1.49-3.63-1.67a9.072 9.072 0 0 0-4 .34c-3.47 1.12-5.33 3.66-5.58 7.63v17.79c0 .7.22 1.33.65 1.89.43.56.92 1.02 1.46 1.4.62.46 1.34.83 2.17 1.12h-15.81c.78-.29 1.49-.66 2.11-1.12.54-.37 1.03-.84 1.49-1.4.45-.56.68-1.19.68-1.89V18.54c0-.7-.17-1.27-.5-1.71a2.58 2.58 0 0 0-1.24-.9c-.5-.17-1.02-.21-1.58-.12-.56.08-1.08.31-1.58.68.54-.79 1.18-1.49 1.92-2.11.66-.54 1.49-1.02 2.48-1.46.99-.43 2.17-.61 3.53-.53 1.03.04 1.93.28 2.7.71.76.43 1.25 1.11 1.46 2.02 2.65-1.78 5.95-2.67 9.92-2.67 2.02 0 3.91.27 5.64.81 1.74.54 3.23 1.31 4.5 2.32 1.26 1.01 2.25 2.24 2.97 3.69.72 1.45 1.09 3.08 1.09 4.9v15.19c0 .7.22 1.33.65 1.89.43.56.92 1.02 1.46 1.4.62.46 1.34.83 2.17 1.12h-15.81c.78-.29 1.49-.66 2.11-1.12Zm47.56-5.03c0 .7.17 1.27.5 1.71s.73.73 1.21.9c.47.17.99.21 1.55.12.56-.08 1.08-.31 1.58-.68-.54.83-1.18 1.55-1.92 2.17-.66.54-1.49 1.01-2.48 1.43-.99.41-2.17.58-3.53.5-1.03-.04-1.94-.34-2.73-.9s-1.26-1.25-1.43-2.08c-2.77 2.03-6.26 3.04-10.48 3.04-2.44 0-4.65-.35-6.63-1.05-1.98-.7-3.68-1.71-5.08-3.04-1.41-1.32-2.49-2.97-3.25-4.93-.77-1.96-1.15-4.19-1.15-6.67s.38-4.7 1.15-6.67c.76-1.96 1.85-3.61 3.25-4.93 1.4-1.32 3.1-2.33 5.08-3.04 1.98-.7 4.19-1.05 6.63-1.05 3.1 0 5.77.52 8 1.55.87.46 1.67.95 2.42 1.49V9.86c0-.7-.22-1.33-.65-1.89-.43-.56-.92-1.02-1.46-1.4-.62-.45-1.32-.83-2.11-1.12 1.07-.37 2.25-.81 3.53-1.3 1.08-.45 2.3-.99 3.69-1.61 1.38-.62 2.82-1.36 4.31-2.23v37.32Zm-12.28 4.28c2.81-1.2 4.42-3.2 4.84-6.01.41-2.81-.31-6.53-2.17-11.16-1.86-4.63-3.89-7.8-6.08-9.52-2.19-1.71-4.69-1.99-7.5-.84-2.85 1.2-4.47 3.2-4.87 6.01-.39 2.81.34 6.53 2.2 11.16s3.88 7.81 6.08 9.55c2.19 1.74 4.69 2.01 7.5.81Zm55.99-23.81c1.69.37 3.34.82 4.93 1.33 1.59.52 3.01 1.21 4.25 2.08a9.9 9.9 0 0 1 2.98 3.29c.74 1.32 1.12 2.98 1.12 4.96 0 2.19-.48 4.15-1.43 5.89-.95 1.74-2.26 3.2-3.94 4.4-1.67 1.2-3.65 2.12-5.92 2.76-2.27.64-4.73.96-7.38.96-1.74 0-3.49-.09-5.27-.28-1.78-.19-3.49-.42-5.15-.71-1.65-.29-3.18-.62-4.59-.99s-2.6-.74-3.6-1.12l.93-8.99c.41 1.94 1.27 3.62 2.57 5.02 1.3 1.41 2.8 2.56 4.5 3.47 1.69.91 3.48 1.59 5.36 2.05 1.88.46 3.63.68 5.24.68 1.74 0 3.35-.23 4.84-.68 1.49-.45 2.78-1.12 3.88-1.98a8.294 8.294 0 0 0 2.48-3.25c.56-1.3.77-2.82.65-4.56-.12-1.82-.87-3.19-2.23-4.12-1.36-.93-3.06-1.65-5.08-2.17-2.03-.52-4.24-.95-6.63-1.3-2.4-.35-4.71-.86-6.94-1.52-1.36-.41-2.66-.89-3.88-1.43-1.22-.54-2.28-1.22-3.19-2.05a9.273 9.273 0 0 1-2.17-2.98c-.54-1.16-.81-2.58-.81-4.28 0-2.11.5-3.95 1.49-5.52.99-1.57 2.36-2.88 4.09-3.94 1.74-1.05 3.76-1.84 6.08-2.36 2.31-.52 4.79-.77 7.44-.77 3.39 0 6.49.25 9.3.74 2.81.5 5.19 1.08 7.13 1.74l-1.18 8.43c-1.2-3.35-3.13-5.86-5.8-7.53S247.8.86 244.16.86c-1.45 0-2.89.15-4.34.46-1.45.31-2.75.82-3.91 1.52-1.16.7-2.09 1.61-2.79 2.73-.7 1.12-1.05 2.46-1.05 4.03s.52 2.81 1.55 3.72c1.03.91 2.39 1.64 4.06 2.2 1.67.56 3.55 1.02 5.64 1.4 2.09.37 4.16.77 6.23 1.18Z" style="fill:#231f20;stroke-width:0"/><path d="M287.24 12.65c4.01.58 7.15 2.2 9.42 4.87 2.27 2.67 3.41 6.21 3.41 10.63 0 2.48-.38 4.7-1.15 6.67-.76 1.96-1.84 3.61-3.22 4.93-1.38 1.32-3.07 2.34-5.05 3.04-1.98.7-4.2 1.05-6.63 1.05-1.16 0-2.25-.06-3.29-.19-2.77-.41-5.15-1.34-7.13-2.79v8.8c0 .7.22 1.33.65 1.89.43.56.92 1.02 1.46 1.4.62.45 1.34.83 2.17 1.12h-15.81c.78-.29 1.49-.66 2.11-1.12.54-.37 1.03-.84 1.49-1.4.45-.56.68-1.19.68-1.89V18.54c0-.7-.17-1.27-.5-1.71a2.58 2.58 0 0 0-1.24-.9c-.5-.17-1.02-.21-1.58-.12-.56.08-1.08.31-1.58.68.58-.79 1.24-1.49 1.98-2.11.66-.54 1.49-1.02 2.48-1.46.99-.43 2.15-.61 3.47-.53.87.04 1.56.18 2.08.4.52.23.93.5 1.24.81.31.31.53.63.65.96.12.33.21.62.25.87 2.73-2.02 6.18-3.04 10.35-3.04.58 0 1.14.02 1.67.06.54.04 1.07.1 1.61.19Zm2.24 29.26c2.81-1.2 4.41-3.2 4.8-6.01.39-2.81-.32-6.53-2.14-11.16-.79-1.9-1.58-3.55-2.39-4.96-.81-1.4-1.66-2.58-2.57-3.53-.04 0-.06-.02-.06-.06-1.9-1.9-4.03-2.71-6.39-2.42-.74.12-1.49.33-2.23.62-3.1 1.28-4.73 3.6-4.9 6.94v1.43c.08 1.24.31 2.58.68 4.03.37 1.45.89 3.04 1.55 4.77.79 1.9 1.58 3.56 2.39 4.96.81 1.41 1.66 2.58 2.57 3.53.04 0 .06.02.06.06 1.9 1.9 4.03 2.71 6.39 2.42.79-.12 1.53-.33 2.23-.62Zm42.16-2.54c0 .7.2 1.17.59 1.4.39.23.84.32 1.33.28.58-.04 1.24-.19 1.98-.43-.46.62-1.01 1.16-1.67 1.61-.58.41-1.3.77-2.17 1.08s-1.9.46-3.1.46c-1.45 0-2.5-.39-3.16-1.18-.66-.78-.99-1.78-.99-2.98-.66.74-1.47 1.41-2.42 1.98-.83.54-1.82 1.03-2.98 1.49-1.16.46-2.5.72-4.03.81-.99.04-2.25-.01-3.78-.16a14.14 14.14 0 0 1-4.37-1.12 9.083 9.083 0 0 1-3.5-2.67c-.95-1.18-1.36-2.76-1.24-4.74.08-1.24.47-2.36 1.15-3.35.68-.99 1.58-1.78 2.7-2.36.7-.41 1.53-.79 2.48-1.15.95-.35 1.89-.66 2.82-.93.93-.27 1.79-.51 2.57-.71.78-.21 1.38-.37 1.8-.5l8.68-2.17v-2.6c0-1.07-.09-2.1-.28-3.07-.19-.97-.51-1.83-.96-2.57s-1.11-1.33-1.95-1.77c-.85-.43-1.91-.67-3.19-.71-1.74-.04-3.29.24-4.65.84-1.36.6-2.54 1.35-3.53 2.26-.99.91-1.8 1.89-2.42 2.94-.62 1.05-1.05 2.02-1.3 2.88l-2.48-7.5c1.2-.41 2.54-.78 4.03-1.12 1.28-.29 2.77-.56 4.46-.81s3.53-.37 5.52-.37c2.23 0 4.22.29 5.95.87 1.74.58 3.21 1.34 4.43 2.29 1.22.95 2.14 2.07 2.76 3.35.62 1.28.93 2.62.93 4.03v16.37Zm-15.07 3.35c1.24-.16 2.33-.52 3.29-1.05.95-.54 1.76-1.17 2.42-1.89.66-.72 1.17-1.5 1.52-2.33.35-.83.53-1.61.53-2.36v-9.98c-.58.08-1.14.21-1.67.37-.46.12-.94.26-1.46.4-.52.15-.96.26-1.33.34-1.24.33-2.49.77-3.75 1.3-1.26.54-2.4 1.23-3.41 2.08-1.01.85-1.83 1.86-2.45 3.04-.62 1.18-.87 2.55-.74 4.12.16 2.07.92 3.65 2.26 4.74 1.34 1.1 2.95 1.5 4.8 1.21Zm48.05-4.16c-.95 1.57-2.44 2.84-4.46 3.81-2.03.97-4.71 1.46-8.06 1.46-2.44 0-4.65-.35-6.63-1.05-1.98-.7-3.68-1.71-5.08-3.04-1.41-1.32-2.49-2.97-3.25-4.93-.77-1.96-1.15-4.19-1.15-6.67s.38-4.7 1.15-6.67c.76-1.96 1.85-3.61 3.25-4.93 1.4-1.32 3.1-2.33 5.08-3.04 1.98-.7 4.19-1.05 6.63-1.05 1.49 0 2.91.1 4.28.31 1.36.21 2.58.41 3.66.62 1.24.29 2.38.6 3.41.93l-2.48 7.38c-.58-1.03-1.39-2.09-2.42-3.16a16.206 16.206 0 0 0-3.53-2.76c-1.32-.76-2.71-1.31-4.15-1.64-1.45-.33-2.85-.25-4.22.25-2.85 1.03-4.47 3-4.87 5.89-.39 2.89.34 6.66 2.2 11.28 1.49 3.76 3.07 6.54 4.74 8.34s3.61 2.7 5.8 2.7c2.36 0 4.33-.46 5.92-1.4 1.59-.93 2.74-2.04 3.44-3.32l.74.68Zm30.19 0c-.95 1.57-2.44 2.84-4.46 3.81-2.03.97-4.71 1.46-8.06 1.46-2.44 0-4.65-.35-6.63-1.05-1.98-.7-3.68-1.71-5.08-3.04-1.41-1.32-2.49-2.97-3.25-4.93-.77-1.96-1.15-4.19-1.15-6.67s.38-4.7 1.15-6.67c.76-1.96 1.85-3.61 3.25-4.93 1.4-1.32 3.1-2.33 5.08-3.04 1.98-.7 4.19-1.05 6.63-1.05 1.49 0 2.91.1 4.28.31 1.36.21 2.58.41 3.66.62 1.24.29 2.38.6 3.41.93L375.6 34.77c1.32 2.65 2.71 4.61 4.15 5.89 1.45 1.28 3.1 1.92 4.96 1.92 2.36 0 4.34-.46 5.95-1.4 1.61-.93 2.77-2.04 3.47-3.32l.68.68Zm-17.98-24.18c-2.85 1.03-4.47 3-4.87 5.89-.39 2.89.34 6.66 2.2 11.28.17.41.33.82.5 1.21.16.39.33.77.5 1.15l13.64-15.44c-.79-.74-1.67-1.45-2.67-2.11-.99-.66-2.01-1.2-3.07-1.61a11.76 11.76 0 0 0-3.16-.77c-1.05-.1-2.08.03-3.07.4Z" style="fill:#231f20;stroke-width:0"/></svg>